<?xml version="1.0" standalone="no"?>
<!DOCTYPE svg PUBLIC "-//W3C//DTD SVG 20010904//EN"
 "http://www.w3.org/TR/2001/REC-SVG-20010904/DTD/svg10.dtd">
<svg version="1.0" xmlns="http://www.w3.org/2000/svg"
 width="425.000000pt" height="425.000000pt" viewBox="0 0 425.000000 425.000000"
 preserveAspectRatio="xMidYMid meet">

<g transform="translate(0.000000,425.000000) scale(0.100000,-0.100000)"
fill="#000000" stroke="none">
<path d="M1875 4209 c-208 -29 -396 -80 -570 -154 -578 -247 -1027 -753 -1198
-1350 -95 -334 -110 -679 -42 -1012 115 -563 460 -1061 949 -1367 129 -81 298
-163 428 -206 l113 -38 7 71 c20 186 72 619 118 982 l51 400 -31 115 c-21 73
-54 159 -95 240 -87 174 -118 280 -159 535 -8 50 -51 220 -95 378 -98 351
-102 399 -34 435 31 17 85 15 111 -3 41 -30 76 -109 148 -338 40 -126 77 -234
83 -240 8 -8 15 -7 25 3 15 16 -13 160 -133 674 -28 121 -51 235 -51 253 0
100 115 160 188 98 47 -40 67 -103 136 -436 95 -452 95 -454 111 -475 13 -18
14 -18 21 -1 4 10 -5 168 -20 350 -49 621 -51 661 -36 697 27 66 133 95 178
47 46 -48 52 -87 97 -561 23 -254 46 -469 50 -478 4 -10 15 -18 25 -18 26 0
29 37 39 437 6 213 14 359 20 371 45 84 165 81 206 -4 16 -33 17 -80 14 -575
-4 -471 -2 -541 11 -549 8 -5 19 -10 23 -10 22 0 69 68 97 143 50 129 85 190
134 235 75 70 133 79 223 38 l51 -24 -59 -174 c-161 -468 -247 -627 -464 -861
-98 -105 -146 -198 -152 -294 -3 -37 2 -288 11 -558 9 -269 19 -595 22 -722
l7 -233 25 0 c45 0 253 51 365 90 462 159 866 485 1115 899 302 504 383 1078
232 1649 -216 809 -911 1420 -1752 1537 -118 16 -438 19 -543 4z"/>
</g>
</svg>
